<?xml version="1.0" encoding="iso-8859-1"?>
<!-- Generator: Adobe Illustrator 22.1.0, SVG Export Plug-In . SVG Version: 6.00 Build 0)  -->
<svg xmlns="http://www.w3.org/2000/svg" xmlns:xlink="http://www.w3.org/1999/xlink" version="1.1" id="Layer_1_1_" x="0px" y="0px" viewBox="0 0 64 64" style="enable-background:new 0 0 64 64;" xml:space="preserve" width="512" height="512">
<linearGradient id="SVGID_1_" gradientUnits="userSpaceOnUse" x1="32" y1="63" x2="32" y2="1">
	<stop offset="0" style="stop-color:hsl(301.6, 30.2%, 49.4%)"/>
	<stop offset="1" style="stop-color:hsl(198, 67%, 57%)"/>
</linearGradient>
<path style="fill:url(#SVGID_1_);" d="M45,3h-5.487l-5.388,6.885C30.696,7.448,26.518,6,22,6C10.421,6,1,15.42,1,27  c0,6.658,3.125,12.591,7.974,16.441L8.051,61H5v2h34v-2h-3.051l-0.923-17.559c0.674-0.535,1.319-1.104,1.923-1.716L39.513,45H45v2  h18v-6H45v2h-4.513l-2.184-2.79C41.235,36.598,43,32.003,43,27c0-6.344-2.84-12.028-7.301-15.882L40.487,5H45v2h18V1H45V3z M47,43  h14v2H47V43z M10.906,44.797c1.267,0.793,2.622,1.45,4.05,1.961L14.061,61h-4.007L10.906,44.797z M27.621,56H16.379l0.126-2h10.991  L27.621,56z M16.253,58h11.494l0.188,3h-11.87L16.253,58z M27.078,47.353L27.37,52H16.63l0.292-4.647C18.552,47.76,20.246,48,22,48  S25.448,47.76,27.078,47.353z M33.946,61h-4.007l-0.895-14.242c1.428-0.511,2.783-1.169,4.05-1.961L33.946,61z M22,46  C11.523,46,3,37.477,3,27S11.523,8,22,8c4.053,0,7.806,1.286,10.894,3.458l-2.462,3.146C28.027,12.963,25.125,12,22,12  c-8.271,0-15,6.729-15,15c0,8.271,6.729,15,15,15c4.457,0,8.455-1.965,11.204-5.061l2.497,3.19C32.24,43.739,27.384,46,22,46z   M22.787,27.616l4.264-5.449C28.255,23.425,29,25.126,29,27c0,3.86-3.141,7-7,7s-7-3.14-7-7s3.141-7,7-7  c1.266,0,2.452,0.343,3.478,0.934l-4.265,5.45L22.787,27.616z M22,18c-4.963,0-9,4.038-9,9s4.037,9,9,9s9-4.038,9-9  c0-2.513-1.038-4.787-2.705-6.421l2.468-3.154C33.359,19.804,35,23.21,35,27c0,2.426-0.68,4.69-1.842,6.636l-1.371-1.752  l-1.574,1.232l1.743,2.227C29.569,38.187,25.994,40,22,40c-7.168,0-13-5.832-13-13c0-7.168,5.832-13,13-13  c2.66,0,5.134,0.806,7.196,2.182l-2.479,3.168C25.344,18.5,23.731,18,22,18z M41,27c0,4.361-1.492,8.371-3.971,11.581l-2.555-3.264  C36.067,32.935,37,30.075,37,27c0-4.429-1.941-8.403-5.003-11.151l2.468-3.153C38.46,16.181,41,21.294,41,27z M47,3h14v2H47V3z   M45,9h14v2H45V9z M61,9h2v2h-2V9z M59,51H45v-2h14V51z M61,49h2v2h-2V49z M3,63H1v-2h2V63z M43,63h-2v-2h2V63z"/>
</svg>
