<?xml version="1.0" encoding="iso-8859-1"?>
<!-- Generator: Adobe Illustrator 22.1.0, SVG Export Plug-In . SVG Version: 6.00 Build 0)  -->
<svg xmlns="http://www.w3.org/2000/svg" xmlns:xlink="http://www.w3.org/1999/xlink" version="1.1" id="Layer_1_1_" x="0px" y="0px" viewBox="0 0 64 64" style="enable-background:new 0 0 64 64;" xml:space="preserve" width="512" height="512">
<linearGradient id="SVGID_1_" gradientUnits="userSpaceOnUse" x1="32" y1="63" x2="32" y2="0.9992">
	<stop offset="0" style="stop-color:hsl(301.6, 30.2%, 49.4%)"/>
	<stop offset="1" style="stop-color:hsl(198, 67%, 57%)"/>
</linearGradient>
<path style="fill:url(#SVGID_1_);" d="M50,38c0,1.654-1.346,3-3,3s-3-1.346-3-3v-1H33v-8h-1c-1.654,0-3-1.346-3-3s1.346-3,3-3h1V13  H21.899C21.435,10.721,19.415,9,17,9s-4.435,1.721-4.899,4H8c-3.859,0-7,3.14-7,7v17v1v18c0,3.86,3.141,7,7,7h24h1h23  c3.859,0,7-3.14,7-7V37H50V38z M3,20c0-2.757,2.243-5,5-5h6v-1c0-1.654,1.346-3,3-3s3,1.346,3,3v1h11v6.101  c-2.279,0.464-4,2.485-4,4.899s1.721,4.435,4,4.899V37h-9.101c-0.465-2.279-2.484-4-4.899-4s-4.435,1.721-4.899,4H3V20z M31,61H8  c-2.757,0-5-2.243-5-5V39h11v-1c0-1.654,1.346-3,3-3s3,1.346,3,3v1h11v6.101c-2.279,0.464-4,2.485-4,4.899s1.721,4.435,4,4.899V61z   M51.899,39H61v17c0,2.757-2.243,5-5,5H33v-8h-1c-1.654,0-3-1.346-3-3s1.346-3,3-3h1v-8h9.101c0.465,2.279,2.484,4,4.899,4  S51.435,41.279,51.899,39z M7,19h2v2H7V19z M13,21h-2v-2h2V21z M17,21h-2v-2h2V21z M7,52h2v2H7V52z M7,48h2v2H7V48z M7,44h2v2H7V44z   M47,47h2v2h-2V47z M53,49h-2v-2h2V49z M57,49h-2v-2h2V49z M48,11c0,1.103,0.897,2,2,2c2.206,0,4,1.794,4,4  c0,1.858-1.279,3.411-3,3.858V23h-2v-2.142c-1.721-0.447-3-2-3-3.858h2c0,1.103,0.897,2,2,2s2-0.897,2-2s-0.897-2-2-2  c-2.206,0-4-1.794-4-4c0-1.858,1.279-3.411,3-3.858V5h2v2.142c1.721,0.447,3,2,3,3.858h-2c0-1.103-0.897-2-2-2S48,9.897,48,11z   M49.488,1.01c-6.731,0.258-12.332,5.951-12.485,12.69c-0.094,4.146,1.829,8.122,5.143,10.637c0.245,0.186,0.435,0.414,0.578,0.663  H41v2h2v3.004C43,31.656,44.346,33,46,33h8c1.654,0,3-1.346,3-3v-3h2v-2h-1.726c0.141-0.246,0.328-0.471,0.568-0.653  C61.12,21.866,63,18.095,63,14c0-3.567-1.416-6.895-3.986-9.368C56.443,2.159,53.062,0.865,49.488,1.01z M55,30c0,0.551-0.448,1-1,1  h-8c-0.552,0-1-0.447-1-0.996V27h10V30z M56.636,22.752C55.873,23.33,55.355,24.12,55.13,25H44.869  c-0.226-0.88-0.747-1.673-1.514-2.255c-2.846-2.16-4.433-5.44-4.352-8.999C39.132,8.044,43.87,3.227,49.564,3.008  C49.712,3.003,49.857,3,50.003,3c2.862,0,5.555,1.082,7.623,3.073C59.802,8.167,61,10.981,61,14  C61,17.463,59.409,20.653,56.636,22.752z"/>
</svg>
