<?xml version="1.0" encoding="iso-8859-1"?>
<!-- Generator: Adobe Illustrator 19.0.0, SVG Export Plug-In . SVG Version: 6.00 Build 0)  -->
<svg version="1.1" id="Capa_1" xmlns="http://www.w3.org/2000/svg" xmlns:xlink="http://www.w3.org/1999/xlink" x="0px" y="0px"
	 viewBox="0 0 512 512" style="enable-background:new 0 0 512 512;" xml:space="preserve">
<path style="fill:#EF5227;" d="M301.951,66.164h-0.401h-91.182h-0.01h-0.309l-26.565,26.575c-0.354,0.354-0.553,0.835-0.553,1.336
	v28.048c0,1.044,0.846,1.89,1.89,1.89h29.314h0.01h83.731h29.304c1.044,0,1.889-0.846,1.889-1.89V94.074
	c0-0.501-0.199-0.982-0.553-1.336L301.951,66.164z"/>
<path style="fill:#666767;" d="M444.488,147.682H295.921H216.1H67.512c-6.165,0-11.166,5.002-11.166,11.166V330.87v22.641H455.14
	V330.87h0.515V158.849C455.654,152.684,450.653,147.682,444.488,147.682z"/>
<path style="fill:#585A5A;" d="M93.709,158.849c0-6.165,5.002-11.166,11.166-11.166H67.512c-6.165,0-11.166,5.002-11.166,11.166
	V330.87v22.641h37.363V330.87V158.849z"/>
<path style="fill:#A4DAF6;" d="M82.074,176.133v164h347.851v-164c0-1.504-1.219-2.722-2.722-2.722H84.796
	C83.293,173.411,82.074,174.63,82.074,176.133z"/>
<path style="fill:#5DCBF3;" d="M113.797,173.411L113.797,173.411h-29c-1.504,0-2.722,1.219-2.722,2.722v164h347.851v-27.787H252.731
	C176,312.346,113.797,250.143,113.797,173.411z"/>
<path style="fill:#FDEBB5;" d="M287.904,275.296c-5.712,0-11.022,1.729-15.437,4.683v-31.44h-32.933v30.782
	c-4.199-2.552-9.129-4.024-14.408-4.024c-15.345,0-27.787,12.442-27.787,27.787c0,15.345,12.442,27.787,27.787,27.787
	c8.892,0,16.806-4.178,21.9-10.683l19.266,0.36c5.094,6.288,12.875,10.322,21.612,10.322c15.345,0,27.787-12.442,27.787-27.787
	C315.69,287.739,303.248,275.296,287.904,275.296z"/>
<g>
	<path style="fill:#F6DB96;" d="M240.912,275.296c0.052,0,0.106,0,0.158,0c7.818,0.043,14.25-6.102,14.25-13.92v-12.838h-15.786
		v26.793C239.991,275.309,240.45,275.296,240.912,275.296z"/>
	<path style="fill:#F6DB96;" d="M213.125,303.083c0-12.601,8.394-23.238,19.891-26.641c-2.501-0.74-5.147-1.145-7.89-1.145
		c-15.345,0-27.787,12.442-27.787,27.787c0,15.345,12.442,27.787,27.787,27.787c2.745,0,5.396-0.4,7.9-1.142
		C221.523,326.328,213.125,315.687,213.125,303.083z"/>
</g>
<path style="fill:#E6BD87;" d="M259.52,279.557c11.856,1.379,20.357,12.103,18.977,23.958c-0.885,7.677-5.701,13.945-12.206,17.032
	l-0.01-0.01c-1.77,0.834-3.664,1.451-5.64,1.791c-0.751,0.123-1.513,0.216-2.285,0.268c-0.051,0.01-0.103,0.01-0.165,0.01
	c-0.371,0.021-0.751,0.031-1.132,0.031c-0.031,0-0.051,0-0.082,0c-0.813,0-1.616-0.051-2.439-0.144
	c-0.679-0.082-1.348-0.185-1.997-0.329c-1.955-0.422-3.798-1.101-5.506-1.997c-0.01,0.01-0.01,0.01-0.01,0.021
	c-7.708-4.024-12.525-12.504-11.465-21.653C236.94,286.679,247.664,278.178,259.52,279.557z"/>
<path style="fill:#CACBCB;" d="M276.583,210.368v41.638c0,2.063-1.673,3.737-3.737,3.737h-0.38h-32.933h-0.38
	c-2.063,0-3.737-1.673-3.737-3.737v-41.638l10.291-8.141h20.583L276.583,210.368z"/>
<path style="fill:#B3B5BC;" d="M255.32,252.006v-41.638l10.291-8.141h-19.903l-10.291,8.141v41.638c0,2.063,1.673,3.737,3.737,3.737
	h0.38h19.523C256.993,255.743,255.32,254.069,255.32,252.006z"/>
<path style="fill:#F1F2F2;" d="M301.55,66.164c-1.77-23.989-12.998-46.26-31.142-60.73l-0.34-0.278
	C265.746,1.719,260.641,0,255.527,0c-5.207,0-10.425,1.791-14.789,5.362c-17.866,14.645-28.816,36.915-30.37,60.802
	c-0.309,4.456-0.268,8.964,0.103,13.492l3.674,44.356l1.955,23.67l2.13,25.729l1.317,21.097h72.925l1.317-21.097l2.13-25.729
	l1.955-23.67l3.612-43.646C301.879,75.601,301.9,70.846,301.55,66.164z"/>
<path style="fill:#DEE1E1;" d="M249.588,147.682l-1.955-23.67l-3.674-44.356c-0.37-4.528-0.412-9.036-0.103-13.492
	c1.496-23.007,11.73-44.494,28.445-59.133c-0.629-0.535-1.246-1.083-1.893-1.597l-0.34-0.278C265.746,1.719,260.641,0,255.527,0
	c-5.207,0-10.425,1.791-14.789,5.362c-17.866,14.645-28.816,36.915-30.37,60.802c-0.309,4.456-0.268,8.964,0.103,13.492
	l3.674,44.356l1.955,23.67l2.13,25.729l1.317,21.097h33.488l-1.317-21.097L249.588,147.682z"/>
<polygon style="fill:#CACBCB;" points="310.545,454.368 310.545,392.619 201.455,392.619 201.455,454.368 182.509,487.815 
	182.509,494.37 329.491,494.37 329.491,487.815 "/>
<path style="fill:#B3B5BC;" d="M280.282,443.495h-41.589v-50.876h-37.238v61.749l-18.947,33.447v6.555h37.238v-6.555l18.697-33.006
	h41.84c3.125,0,5.657-2.533,5.657-5.657l0,0C285.94,446.028,283.406,443.495,280.282,443.495z"/>
<path style="fill:#F1F2F2;" d="M344.507,499.65v0.515c0,6.535-5.3,11.835-11.835,11.835H179.329c-6.535,0-11.835-5.3-11.835-11.835
	v-0.515c0-6.535,5.3-11.835,11.835-11.835h3.18h146.983h3.18C339.206,487.815,344.507,493.115,344.507,499.65z"/>
<path style="fill:#DEE1E1;" d="M221.141,499.908c-6.535,0-11.835-5.3-11.835-11.835v-0.257h-26.797h-3.18
	c-6.535,0-11.835,5.3-11.835,11.835v0.515c0,6.535,5.3,11.835,11.835,11.835h153.343c6.535,0,11.835-5.3,11.835-11.835v-0.257
	H221.141z"/>
<path style="fill:#F1F2F2;" d="M429.926,330.87H287.904h-62.778H82.074H56.346v55.728c0,6.165,5.002,11.166,11.166,11.166h133.943
	h109.089h133.943c6.165,0,11.166-5.002,11.166-11.166V330.87H429.926z"/>
<path style="fill:#DEE1E1;" d="M94.358,386.599V330.87H82.074H56.346v55.728c0,6.165,5.002,11.166,11.166,11.166h38.013
	C99.36,397.765,94.358,392.763,94.358,386.599z"/>
<path style="fill:#EF5227;" d="M310.545,201.97v41.762c0,1.112-1.283,1.734-2.156,1.044l-31.806-25.145l-10.291-8.141h-20.583
	l-10.291,8.141l-31.806,25.146c-0.873,0.69-2.156,0.068-2.156-1.044V201.97c0-6.678,5.414-12.092,12.092-12.092h78.925h5.979
	C305.13,189.877,310.545,195.292,310.545,201.97z"/>
<circle style="fill:#CACBCB;" cx="256" cy="365.861" r="12.35"/>
<path style="fill:#A4DAF6;" d="M256,58.147c13.636,0,24.699,11.063,24.699,24.699s-11.063,24.7-24.699,24.7
	c-13.636,0-24.699-11.063-24.699-24.7S242.364,58.147,256,58.147z"/>
<path style="fill:#5DCBF3;" d="M252.974,80.879c0-8.933,4.748-16.761,11.856-21.099c-2.743-1.052-5.719-1.633-8.83-1.633
	c-13.636,0-24.699,11.063-24.699,24.7s11.063,24.7,24.699,24.7c4.703,0,9.101-1.317,12.844-3.601
	C259.567,100.388,252.974,91.403,252.974,80.879z"/>
<g>
</g>
<g>
</g>
<g>
</g>
<g>
</g>
<g>
</g>
<g>
</g>
<g>
</g>
<g>
</g>
<g>
</g>
<g>
</g>
<g>
</g>
<g>
</g>
<g>
</g>
<g>
</g>
<g>
</g>
</svg>
