<svg height="512pt" viewBox="0 -31 512 512" width="512pt" xmlns="http://www.w3.org/2000/svg"><path d="m205.484375 380.351562h101.03125v55.863282h-101.03125zm0 0" fill="#2c6a9b"/><path d="m205.488281 380.351562h101.023438v17.386719h-101.023438zm0 0" fill="#1a5a84"/><path d="m354.214844 449.984375h-196.429688c-5.144531 0-9.316406-4.171875-9.316406-9.316406s4.171875-9.3125 9.316406-9.3125h196.429688c5.144531 0 9.3125 4.167969 9.3125 9.3125s-4.167969 9.316406-9.3125 9.316406zm0 0" fill="#dceeef"/><path d="m512 41.019531v331.792969c0 5.808594-4.707031 10.507812-10.519531 10.507812h-490.960938c-5.8125 0-10.519531-4.699218-10.519531-10.507812v-331.792969c0-8.703125 7.066406-15.761719 15.773438-15.761719h480.453124c8.714844 0 15.773438 7.058594 15.773438 15.761719zm0 0" fill="#dceeef"/><path d="m443.8125 60.964844c-1.246094 20.460937-6.78125 74.503906-30.949219 134.285156-30.503906 75.40625-78.910156 132.871094-143.875 170.792969-3.933593 2.296875-8.425781 3.511719-12.988281 3.511719-4.566406 0-9.054688-1.214844-12.992188-3.511719-7.449218-4.335938-14.742187-8.992188-21.664062-13.816407-56.609375-39.289062-98.878906-95.0625-125.632812-165.753906-21.351563-56.421875-26.359376-106.550781-27.523438-125.488281-.617188-10.074219 4.75-19.625 13.671875-24.332031l21.582031-11.394532h305.109375l21.59375 11.394532c8.917969 4.707031 14.285157 14.246094 13.667969 24.3125zm0 0" fill="#bcdde2"/><path d="m512 41.019531v331.789063c0 5.816406-4.707031 10.511718-10.511719 10.511718h-22.875c5.804688 0 10.511719-4.695312 10.511719-10.511718v-331.789063c0-8.699219-7.058594-15.757812-15.769531-15.757812h22.875c8.710937 0 15.769531 7.058593 15.769531 15.757812zm0 0" fill="#bcdde2"/><path d="m512 332.902344v39.910156c0 5.808594-4.707031 10.507812-10.507812 10.507812h-490.984376c-5.800781 0-10.507812-4.699218-10.507812-10.507812v-39.910156zm0 0" fill="#3b7ca8"/><path d="m512 332.902344v39.910156c0 5.808594-4.707031 10.507812-10.507812 10.507812h-22.878907c5.808594 0 10.515625-4.699218 10.515625-10.507812v-39.910156zm0 0" fill="#2c6a9b"/><path d="m512 41.019531v22.5h-512v-22.5c0-8.703125 7.066406-15.761719 15.773438-15.761719h480.453124c8.714844 0 15.773438 7.058594 15.773438 15.761719zm0 0" fill="#8bc1c6"/><path d="m443.8125 60.964844c-.050781.804687-.101562 1.648437-.164062 2.554687h-375.285157c-.074219-.894531-.125-1.742187-.175781-2.535156-.617188-10.074219 4.75-19.625 13.671875-24.332031l21.582031-11.394532h305.109375l21.59375 11.394532c8.917969 4.707031 14.285157 14.246094 13.667969 24.3125zm0 0" fill="#61989b"/><path d="m315.832031 332.902344c-14.492187 12.332031-30.121093 23.382812-46.839843 33.140625-3.9375 2.296875-8.429688 3.511719-12.992188 3.511719s-9.054688-1.214844-12.992188-3.511719c-7.445312-4.335938-14.742187-8.992188-21.664062-13.816407-8.726562-6.054687-17.109375-12.496093-25.148438-19.324218zm0 0" fill="#2c6a9b"/><path d="m330.925781 0h-149.859375c-2.175781 0-4.316406.53125-6.242187 1.546875l-87.195313 46.035156c-4.648437 2.457031-7.425781 7.398438-7.101562 12.644531 2.339844 38.175782 19.683594 192.867188 147.882812 281.859376 6.636719 4.621093 13.574219 9.054687 20.824219 13.28125 4.171875 2.4375 9.347656 2.441406 13.519531.003906 147.21875-85.933594 166.265625-255.03125 168.722656-295.15625.320313-5.246094-2.460937-10.179688-7.109374-12.628906l-27.71875-14.632813-59.480469-31.40625c-1.925781-1.015625-4.066407-1.546875-6.242188-1.546875zm0 0" fill="#00e0ff"/><path d="m249.152344 322.640625c-1.644532-1.09375-3.269532-2.199219-4.871094-3.316406-49.855469-34.609375-87.230469-84.085938-111.058594-147.046875-14.550781-38.445313-20.757812-73.480469-23.402344-96.101563-.589843-5.070312 1.992188-9.984375 6.507813-12.367187l65.59375-34.632813c1.777344-.9375 3.757813-1.429687 5.769531-1.429687h136.609375c2.011719 0 3.992188.492187 5.769531 1.429687l65.605469 34.636719c4.511719 2.382812 7.097657 7.296875 6.507813 12.367188-2.875 24.671874-9.8125 62.75-26.503906 104.03125-24.789063 61.28125-62.753907 109.203124-112.84375 142.4375-4.148438 2.75-9.539063 2.746093-13.683594-.007813zm0 0" fill="#00b8d6"/><path d="m256 312.347656c-1.570312-1.042968-3.121094-2.101562-4.648438-3.167968-47.808593-33.183594-83.640624-80.703126-106.566406-141.277344-14.164062-37.421875-20.15625-71.527344-22.683594-93.164063l65.59375-34.628906h136.605469l65.601563 34.636719c-2.707032 23.230468-9.359375 60.464844-25.683594 100.828125-23.859375 58.996093-60.222656 104.929687-108.21875 136.773437zm0 0" fill="#81e2fc"/><path d="m370.484375 158.9375c-1.914063 5.464844-4 11.027344-6.269531 16.644531-23.855469 58.984375-60.21875 104.925781-108.214844 136.769531v-153.414062zm0 0" fill="#dceeef"/><path d="m256 158.9375v153.414062c-1.566406-1.054687-3.117188-2.109374-4.652344-3.167968-47.796875-33.183594-83.628906-80.699219-106.558594-141.277344-1.136718-3.023438-2.234374-6.003906-3.261718-8.972656h114.472656zm0 0" fill="#ffbf00"/><path d="m389.910156 74.746094c-2.339844 20-7.59375 50.363281-19.425781 84.191406h-114.484375v-118.832031h68.304688zm0 0" fill="#009af2"/><g fill="#4c94c3"><path d="m59.195312 299.964844h-5.496093c-4.265625 0-7.722657-3.457032-7.722657-7.726563 0-4.265625 3.457032-7.726562 7.722657-7.726562h5.496093c4.265626 0 7.726563 3.460937 7.726563 7.726562 0 4.269531-3.460937 7.726563-7.726563 7.726563zm0 0"/><path d="m103.148438 278.867188h-49.449219c-4.265625 0-7.722657-3.457032-7.722657-7.722657 0-4.269531 3.457032-7.726562 7.722657-7.726562h49.449219c4.269531 0 7.726562 3.457031 7.726562 7.726562 0 4.265625-3.460938 7.722657-7.726562 7.722657zm0 0"/><path d="m76.363281 257.773438h-22.664062c-4.265625 0-7.722657-3.460938-7.722657-7.726563s3.457032-7.726563 7.722657-7.726563h22.664062c4.269531 0 7.726563 3.460938 7.726563 7.726563s-3.457032 7.726563-7.726563 7.726563zm0 0"/><path d="m103.148438 257.773438h-6.179688c-4.269531 0-7.726562-3.460938-7.726562-7.726563s3.457031-7.726563 7.726562-7.726563h6.179688c4.265624 0 7.726562 3.460938 7.726562 7.726563s-3.460938 7.726563-7.726562 7.726563zm0 0"/><path d="m103.164062 299.964844h-22.664062c-4.265625 0-7.726562-3.457032-7.726562-7.726563 0-4.265625 3.460937-7.726562 7.726562-7.726562h22.664062c4.265626 0 7.726563 3.460937 7.726563 7.726562 0 4.269531-3.460937 7.726563-7.726563 7.726563zm0 0"/><path d="m414.328125 299.964844h-5.492187c-4.265626 0-7.726563-3.457032-7.726563-7.726563 0-4.265625 3.460937-7.726562 7.726563-7.726562h5.492187c4.269531 0 7.726563 3.460937 7.726563 7.726562 0 4.269531-3.457032 7.726563-7.726563 7.726563zm0 0"/><path d="m458.285156 278.867188h-49.449218c-4.265626 0-7.726563-3.457032-7.726563-7.722657 0-4.269531 3.460937-7.726562 7.726563-7.726562h49.449218c4.265625 0 7.726563 3.457031 7.726563 7.726562 0 4.265625-3.460938 7.722657-7.726563 7.722657zm0 0"/><path d="m431.5 257.773438h-22.664062c-4.265626 0-7.726563-3.460938-7.726563-7.726563s3.460937-7.726563 7.726563-7.726563h22.664062c4.265625 0 7.726562 3.460938 7.726562 7.726563s-3.460937 7.726563-7.726562 7.726563zm0 0"/><path d="m458.285156 257.773438h-6.179687c-4.269531 0-7.726563-3.460938-7.726563-7.726563s3.457032-7.726563 7.726563-7.726563h6.179687c4.265625 0 7.726563 3.460938 7.726563 7.726563s-3.460938 7.726563-7.726563 7.726563zm0 0"/><path d="m458.300781 299.964844h-22.664062c-4.269531 0-7.726563-3.457032-7.726563-7.726563 0-4.265625 3.457032-7.726562 7.726563-7.726562h22.664062c4.265625 0 7.722657 3.460937 7.722657 7.726562.003906 4.269531-3.457032 7.726563-7.722657 7.726563zm0 0"/></g><path d="m292.140625 158.9375c0 19.957031-16.179687 36.136719-36.140625 36.136719s-36.140625-16.179688-36.140625-36.136719c0-19.960938 16.179687-36.140625 36.140625-36.140625s36.140625 16.179687 36.140625 36.140625zm0 0" fill="#00b8d6"/><path d="m269.269531 158.9375c0 7.328125-5.941406 13.265625-13.269531 13.265625s-13.269531-5.9375-13.269531-13.265625 5.941406-13.269531 13.269531-13.269531 13.269531 5.941406 13.269531 13.269531zm0 0" fill="#ffbf00"/></svg>