<svg xmlns="http://www.w3.org/2000/svg" viewBox="0 0 292.93 163.56"><defs><style>.cls-1{fill:#1b75bc;}</style></defs><title>Asset 1</title><g id="Layer_2" data-name="Layer 2"><g id="Layer_1-2" data-name="Layer 1"><path class="cls-1" d="M50.4,102.85a98.11,98.11,0,0,1,30.26,4.53C109,116.6,128.9,139.85,137.11,151a139,139,0,0,1-41,6.59A98,98,0,0,1,65.81,153c-28.38-9.22-48.25-32.46-56.46-43.59a139.07,139.07,0,0,1,41.05-6.59h0m0-6A142.87,142.87,0,0,0,0,106.41s23.51,39.18,64,52.33a104,104,0,0,0,32.12,4.82A142.87,142.87,0,0,0,146.46,154S123,114.82,82.51,101.68a103.7,103.7,0,0,0-32.12-4.83Z"/><path class="cls-1" d="M61.73,37.36c13.11,4.36,41.31,16,58.89,40.25S140.57,132.2,140.68,146c-13.13-4.38-41.37-16.1-58.9-40.23s-20-54.62-20.05-68.45m-5.79-7.95s-4,45.52,21,79.92S146.46,154,146.46,154s4-45.52-21-79.92S55.94,29.41,55.94,29.41Z"/><path class="cls-1" d="M146.46,9.84c8,11.26,24,37.34,24,67.17s-16,55.9-24,67.15c-8-11.26-24-37.34-24-67.17s16-55.89,24-67.15m0-9.84s-30,34.47-30,77,30,77,30,77,30-34.47,30-77-30-77-30-77Z"/><path class="cls-1" d="M231.2,37.37c-.11,13.84-2.53,44.32-20.06,68.45s-45.78,35.85-58.9,40.22c.09-13.81,2.48-44.24,20.07-68.45s45.76-35.84,58.89-40.22m5.78-8s-44.53,10.25-69.52,44.66-21,79.93-21,79.93S191,143.75,216,109.35s21-79.94,21-79.94Z"/><path class="cls-1" d="M242.54,102.85a139.43,139.43,0,0,1,41,6.6c-8.19,11.12-28,34.34-56.48,43.58a97.61,97.61,0,0,1-30.25,4.53,139.43,139.43,0,0,1-41-6.6c8.19-11.12,28-34.33,56.48-43.58a97.61,97.61,0,0,1,30.25-4.53h0m0-6a104,104,0,0,0-32.11,4.82c-40.44,13.14-64,52.33-64,52.33a142.87,142.87,0,0,0,50.39,9.56A104,104,0,0,0,229,158.74c40.44-13.14,64-52.33,64-52.33a142.87,142.87,0,0,0-50.39-9.56Z"/></g></g></svg>